<svg xmlns="http://www.w3.org/2000/svg" viewBox="0 0 240 260" role="img" aria-labelledby="title desc">
  <title id="title">Sage themed chibi</title>
  <desc id="desc">Illustration of a cheerful healer with teal aura holding a glowing orb.</desc>
  <defs>
    <linearGradient id="robe" x1="0" x2="0" y1="0" y2="1">
      <stop offset="0%" stop-color="#2c7870" />
      <stop offset="100%" stop-color="#143c37" />
    </linearGradient>
    <linearGradient id="hair" x1="0" x2="1" y1="0.1" y2="1">
      <stop offset="0%" stop-color="#133947" />
      <stop offset="100%" stop-color="#051e2a" />
    </linearGradient>
    <radialGradient id="orb" cx="0.5" cy="0.5" r="0.5">
      <stop offset="0%" stop-color="#c9fff4" stop-opacity="0.95" />
      <stop offset="60%" stop-color="#6ee9d7" stop-opacity="0.85" />
      <stop offset="100%" stop-color="rgba(255,255,255,0)" stop-opacity="0" />
    </radialGradient>
    <filter id="glow" x="-50%" y="-50%" width="200%" height="200%">
      <feGaussianBlur stdDeviation="4" result="blur" />
      <feMerge>
        <feMergeNode in="blur" />
        <feMergeNode in="SourceGraphic" />
      </feMerge>
    </filter>
  </defs>
  <g fill="none" stroke="none" stroke-width="0">
    <ellipse cx="120" cy="232" rx="70" ry="18" fill="rgba(9, 25, 32, 0.55)" />
    <g transform="translate(32 18)">
      <path d="M88 28c-26 0-46 21-46 50s14 46 46 46 46-17 46-46S114 28 88 28z" fill="url(#hair)" />
      <path d="M42 84c3 28 20 40 46 40s43-12 46-40c-12-6-24-10-46-10s-34 4-46 10z" fill="#f2dcd1" />
      <path d="M60 142c0-20 12-34 28-34s28 14 28 34" fill="#f2dcd1" />
      <path d="M32 160c6-20 18-34 56-34s50 14 56 34l-28 40H60z" fill="url(#robe)" />
      <path d="M44 168c-4 14-4 30 6 46l24-2-6-24 18-22-18-20z" fill="#1c5f58" />
      <path d="M132 168c4 14 4 30-6 46l-24-2 6-24-18-22 18-20z" fill="#1c5f58" />
      <path d="M74 102c0 6-3 12-10 12s-12-6-12-12" stroke="#133947" stroke-width="5" stroke-linecap="round" />
      <path d="M122 102c0 6 3 12 10 12s12-6 12-12" stroke="#133947" stroke-width="5" stroke-linecap="round" />
      <path d="M96 132a18 18 0 0 1-24 0" stroke="#dc7f7f" stroke-width="5" stroke-linecap="round" />
      <circle cx="72" cy="104" r="4" fill="#0d242f" />
      <circle cx="104" cy="104" r="4" fill="#0d242f" />
      <path d="M72 154c0 12 8 18 16 18s16-6 16-18" stroke="#f9f3ed" stroke-width="6" stroke-linecap="round" />
      <g transform="translate(56 122)">
        <circle cx="32" cy="32" r="32" fill="url(#orb)" filter="url(#glow)" />
        <circle cx="32" cy="32" r="14" fill="#dffef5" opacity="0.8" />
        <path d="M24 30c4-6 12-6 16 0" stroke="#69e7d4" stroke-width="4" stroke-linecap="round" opacity="0.7" />
        <path d="M20 40c8 8 16 8 24 0" stroke="#69e7d4" stroke-width="3" stroke-linecap="round" opacity="0.6" />
      </g>
      <path d="M30 118c-8-12-8-26 2-36 12-12 28-14 58-14s46 2 58 14c10 10 10 24 2 36-12-16-30-24-60-24s-48 8-60 24z" fill="#1f4f49" opacity="0.65" />
      <path d="M46 58c10-8 26-12 42-12s32 4 42 12c-4-22-22-38-44-38s-40 16-40 38z" fill="#1b4440" />
      <path d="M88 26c-16 0-28 10-30 26 8 4 18 6 30 6s22-2 30-6c-2-16-14-26-30-26z" fill="#133947" />
      <path d="M70 206c-6 14-8 24-6 32h48c2-8 0-18-6-32z" fill="#0f2227" />
      <path d="M46 234c0 8 8 12 18 12h48c10 0 18-4 18-12z" fill="#05161b" />
      <g fill="#6ee9d7" opacity="0.35">
        <circle cx="20" cy="92" r="6" />
        <circle cx="8" cy="132" r="4" />
        <circle cx="158" cy="96" r="6" />
        <circle cx="172" cy="132" r="5" />
        <circle cx="40" cy="32" r="4" />
        <circle cx="146" cy="40" r="5" />
      </g>
    </g>
  </g>
</svg>
