<svg xmlns="http://www.w3.org/2000/svg" viewBox="0 0 260 280" role="img" aria-labelledby="title desc">
  <title id="title">Original Sage inspired chibi illustration</title>
  <desc id="desc">A stylised chibi healer in teal robes holding a radiant orb with swirling petals behind her.</desc>
  <defs>
    <radialGradient id="aura" cx="0.5" cy="0.45" r="0.65">
      <stop offset="0" stop-color="#c2fff0" stop-opacity="0.8" />
      <stop offset="0.55" stop-color="#7ad6c7" stop-opacity="0.55" />
      <stop offset="1" stop-color="#0b1c24" stop-opacity="0" />
    </radialGradient>
    <linearGradient id="robe" x1="0" x2="0" y1="0" y2="1">
      <stop offset="0" stop-color="#46b7a7" />
      <stop offset="1" stop-color="#1a5d5a" />
    </linearGradient>
    <linearGradient id="hair" x1="0" x2="1" y1="0.1" y2="1">
      <stop offset="0" stop-color="#0d2b38" />
      <stop offset="1" stop-color="#08141c" />
    </linearGradient>
    <radialGradient id="orb" cx="0.5" cy="0.5" r="0.5">
      <stop offset="0" stop-color="#f5fffd" />
      <stop offset="0.45" stop-color="#9df0e4" />
      <stop offset="1" stop-color="#67d5c7" stop-opacity="0" />
    </radialGradient>
    <filter id="softGlow" x="-40%" y="-40%" width="180%" height="180%">
      <feGaussianBlur stdDeviation="4" result="blur" />
      <feMerge>
        <feMergeNode in="blur" />
        <feMergeNode in="SourceGraphic" />
      </feMerge>
    </filter>
  </defs>
  <g stroke="none" stroke-width="0" fill="none">
    <ellipse cx="130" cy="244" rx="80" ry="20" fill="rgba(7,18,24,0.55)" />
    <circle cx="130" cy="126" r="118" fill="url(#aura)" />
    <g transform="translate(36 30)">
      <path d="M94 12c-30 0-58 23-62 62-1 12 2 26 9 38 11-14 32-26 53-26s42 12 53 26c7-12 10-26 9-38-4-39-32-62-62-62z" fill="url(#hair)" />
      <path d="M94 48c-33 0-52 16-52 46 0 30 20 50 52 50s52-20 52-50c0-30-19-46-52-46z" fill="#f4ded5" />
      <path d="M66 112c0 8-5 15-12 15s-14-7-14-15" stroke="#14313b" stroke-width="5" stroke-linecap="round" />
      <path d="M136 112c0 8 5 15 12 15s14-7 14-15" stroke="#14313b" stroke-width="5" stroke-linecap="round" />
      <circle cx="76" cy="116" r="6" fill="#0a1d25" />
      <circle cx="112" cy="116" r="6" fill="#0a1d25" />
      <path d="M86 144c6 8 20 8 26 0" stroke="#d9868f" stroke-width="6" stroke-linecap="round" />
      <path d="M58 86c8-12 22-20 36-20s28 8 36 20c2-14-4-26-12-34-9-8-17-10-24-10s-15 2-24 10c-8 8-14 20-12 34z" fill="#0f3745" />
      <path d="M94 154c-30 0-56 22-66 62l34 26 32-42 32 42 34-26c-10-40-36-62-66-62z" fill="url(#robe)" />
      <path d="M64 210c-10 10-12 26-8 36h76c4-10 2-26-8-36l-30-26z" fill="#0b1e25" />
      <g transform="translate(58 142)">
        <circle cx="36" cy="36" r="36" fill="url(#orb)" filter="url(#softGlow)" />
        <circle cx="36" cy="36" r="16" fill="#eafffb" opacity="0.85" />
        <path d="M26 34c6-10 18-10 22 0" stroke="#7ce7d7" stroke-width="4" stroke-linecap="round" opacity="0.7" />
        <path d="M24 44c8 8 24 8 32 0" stroke="#7ce7d7" stroke-width="3" stroke-linecap="round" opacity="0.55" />
      </g>
      <g fill="#7ce2d2" opacity="0.35">
        <circle cx="16" cy="128" r="5" />
        <circle cx="20" cy="72" r="4" />
        <circle cx="170" cy="86" r="6" />
        <circle cx="160" cy="152" r="5" />
        <circle cx="60" cy="32" r="4" />
        <circle cx="138" cy="34" r="5" />
      </g>
      <g fill="#63d4c6" opacity="0.4">
        <path d="M12 178c12-8 28-10 36 0 10 12 24 14 36 8-18 18-40 22-64 12z" />
        <path d="M176 178c-12-8-28-10-36 0-10 12-24 14-36 8 18 18 40 22 64 12z" />
      </g>
    </g>
    <g transform="translate(30 32) rotate(-8)" fill="#67d5c7" opacity="0.22">
      <path d="M62 30c-18 8-34 22-42 44 18 6 34 4 48-8 10-8 16-18 18-32-8-4-16-6-24-4z" />
      <path d="M186 40c-16-12-34-16-54-10 0 14 6 26 16 34 14 12 32 14 50 8-4-14-8-26-12-32z" />
    </g>
  </g>
</svg>
